<?xml version="1.0" standalone="no"?>
<!DOCTYPE svg PUBLIC "-//W3C//DTD SVG 1.1//EN" "http://www.w3.org/Graphics/SVG/1.1/DTD/svg11.dtd" >
<svg xmlns="http://www.w3.org/2000/svg">
<metadata>
This is a custom SVG webfont generated by Font Squirrel.
Copyright   : Copyright  1988 1990 1993 2003 Linotype Library GmbH wwwlinotypecom All rights reserved Copyright  1988 1990 1993 Adobe Systems Incorporated All Rights Reserved
Designer    : Linotype Library GmbH
Foundry     : Linotype Library GmbH
Foundry URL : httpwwwlinotypecom 
</metadata>
<defs>
<font id="HelveticaNeueLTPro77BdCn" horiz-adv-x="983" >
<font-face units-per-em="2048" ascent="1462" descent="-586" />
<missing-glyph horiz-adv-x="491" />
<glyph unicode=" "  horiz-adv-x="491" />
<glyph unicode="&#x09;" horiz-adv-x="491" />
<glyph unicode="&#xa0;" horiz-adv-x="491" />
<glyph unicode="!" horiz-adv-x="606" d="M162 0v270h282v-270h-282zM162 987v475h282v-475l-38 -579h-205z" />
<glyph unicode="&#x22;" horiz-adv-x="948" d="M147 805v657h254v-657h-254zM547 805v657h254v-657h-254z" />
<glyph unicode="#" d="M0 356v230h178l33 250h-150v229h177l45 356h196l-43 -356h199l45 356h199l-45 -356h149v-229h-176l-33 -250h150v-230h-176l-46 -356h-198l45 356h-201l-43 -356h-199l46 356h-152zM377 586h198l33 250h-200z" />
<glyph unicode="$" d="M18 391v43h283q0 -104 22.5 -165.5t96.5 -80.5v414l-103 37q-281 100 -280 393q0 186 99.5 292t283.5 126v141h131v-141q379 -33 379 -387v-29h-283q-4 170 -96 199v-387l162 -66q129 -55 190.5 -133t61.5 -237q0 -217 -102.5 -320.5t-311.5 -118.5v-178h-131v178 q-123 10 -205 46t-123 95.5t-57.5 125t-16.5 153.5zM319 1077q0 -115 101 -172v328q-101 -29 -101 -156zM551 188q119 27 119 164q0 76 -29 121t-90 78v-363z" />
<glyph unicode="%" horiz-adv-x="1593" d="M55 1059q0 211 62.5 301t245 90t245 -90t62.5 -301t-62.5 -301t-245 -90t-245 90t-62.5 301zM272 1067q0 -135 16.5 -189.5t74 -54.5t74 54.5t16.5 189.5q0 125 -16.5 176t-74 51t-74 -51t-16.5 -176zM287 -63l831 1548h182l-831 -1548h-182zM924 362.5q0 210.5 62.5 301 t244.5 90.5t244.5 -90.5t62.5 -301t-62.5 -301t-244.5 -90.5t-244.5 90.5t-62.5 301zM1141 371q0 -135 16.5 -189.5t73.5 -54.5t73.5 54.5t16.5 189.5q0 125 -16.5 176t-73.5 51t-73.5 -51t-16.5 -176z" />
<glyph unicode="&#x26;" horiz-adv-x="1214" d="M25 393q0 236 294 422l-51 76q-59 86 -78.5 141t-19.5 123q0 139 103.5 223t269.5 84q180 0 272 -85t92 -220q0 -109 -60.5 -197t-193.5 -182l219 -297q51 106 52 221h254q0 -219 -150 -432l193 -270h-314l-82 113q-119 -141 -352 -142q-131 0 -224 41t-139.5 109.5 t-65.5 135t-19 136.5zM307 393q0 -74 55.5 -133t149.5 -59q117 0 190 92l-245 348q-82 -66 -116 -122t-34 -126zM412 1163q0 -61 73 -159l35 -50l53 45q92 78 93 160q0 59 -36 91t-93 32q-55 0 -90 -32t-35 -87z" />
<glyph unicode="'" horiz-adv-x="532" d="M139 805v657h254v-657h-254z" />
<glyph unicode="(" horiz-adv-x="606" d="M102 543q0 465 287 919h217q-127 -233 -180 -445t-53 -474t53 -474t180 -446h-217q-287 455 -287 920z" />
<glyph unicode=")" horiz-adv-x="606" d="M0 -377q127 233 180 445.5t53 474.5t-53 474t-180 445h217q287 -455 287 -919.5t-287 -919.5h-217z" />
<glyph unicode="*" horiz-adv-x="798" d="M14 1122l52 160l249 -82v262h168v-262l250 82l51 -160l-249 -82l155 -213l-137 -98l-154 213l-153 -213l-137 98l155 213z" />
<glyph unicode="+" horiz-adv-x="1228" d="M96 391v254h391v391h254v-391h392v-254h-392v-391h-254v391h-391z" />
<glyph unicode="," horiz-adv-x="491" d="M111 0v319h270v-266q0 -180 -58.5 -277.5t-211.5 -113.5v143q51 10 78.5 56.5t27.5 105.5v33h-106z" />
<glyph unicode="-" horiz-adv-x="757" d="M90 471v242h578v-242h-578z" />
<glyph unicode="." horiz-adv-x="491" d="M111 0v319h270v-319h-270z" />
<glyph unicode="/" horiz-adv-x="679" d="M-6 -29l463 1520h229l-463 -1520h-229z" />
<glyph unicode="0" d="M37 676q0 102 2 170.5t12 157t28.5 146.5t51.5 119.5t81 97.5t118.5 59.5t161.5 23.5q260 0 357 -156.5t97 -548.5q0 -102 -2 -170.5t-12 -156.5t-28.5 -146.5t-51.5 -120t-81 -97.5t-118.5 -59.5t-160.5 -23.5q-260 0 -357.5 157t-97.5 548zM332 612q0 -272 32.5 -360 t127.5 -88q96 0 127.5 101.5t31.5 385.5v158q0 272 -32.5 360t-126.5 88q-96 0 -128 -101t-32 -386v-158z" />
<glyph unicode="1" d="M84 1024v193h27q295 0 340 233h217v-1450h-295v1024h-289z" />
<glyph unicode="2" d="M37 0q0 188 76.5 334.5t242.5 300.5l119 110q94 82 123 149t29 183q0 180 -144 180q-70 0 -107.5 -41.5t-47 -96t-9.5 -144.5h-282v55q0 420 450 420q217 0 326 -101.5t109 -293.5q0 -141 -51.5 -245.5t-174.5 -215.5l-164 -152q-123 -113 -149 -213h547v-229h-893z" />
<glyph unicode="3" d="M41 418v6h283q2 -137 35.5 -198.5t125.5 -61.5q96 0 129 60.5t33 172.5q0 115 -40 181.5t-150 66.5h-99v193h97q86 0 127 65.5t41 163.5q0 102 -34 146t-108 44q-88 0 -118.5 -59t-30.5 -176h-271q0 428 426 428q418 0 418 -373q0 -129 -58.5 -213t-162.5 -106v-4 q258 -43 258 -342q0 -82 -20.5 -153t-68.5 -139.5t-148.5 -108.5t-243.5 -40q-207 0 -313.5 117t-106.5 330z" />
<glyph unicode="4" d="M29 301v242l481 907h305v-920h139v-229h-139v-301h-270v301h-516zM258 530h287v551h-4z" />
<glyph unicode="5" d="M37 375v39h282q0 -238 144 -238q172 0 172 283q0 178 -36 242.5t-134 64.5q-123 0 -139 -133h-265l54 788h755v-229h-534l-31 -330h4q80 109 266 109q100 0 172 -39t110 -107.5t55.5 -146.5t17.5 -170q0 -262 -101.5 -399.5t-363.5 -137.5q-106 0 -186 27t-125 67.5 t-73 97t-36 107t-8 105.5z" />
<glyph unicode="6" d="M29 649q0 86 1 136.5t5 128t13 125.5t26.5 111.5t41 101.5t60.5 80t85 64.5t112.5 38t142.5 15.5q174 0 286.5 -87t117.5 -282h-283q0 176 -133 176q-57 0 -94 -26.5t-55.5 -79.5t-24.5 -113.5t-6 -148.5v-72h4q82 125 272 125q182 0 268 -122t86 -331q0 -518 -469 -518 q-117 0 -202.5 38t-134 97.5t-76 152.5t-35.5 182t-8 208zM338 451q0 -141 32.5 -214t129 -73t128 71.5t31.5 215.5q0 147 -36.5 210.5t-122.5 63.5q-88 0 -125 -63.5t-37 -210.5z" />
<glyph unicode="7" d="M45 1167v254h893v-225q-172 -242 -279.5 -556t-146.5 -640h-309q80 657 452 1167h-610z" />
<glyph unicode="8" d="M29 410q0 141 63.5 237t181.5 121v4q-109 27 -158.5 108t-49.5 171q0 399 426 399t426 -399q0 -90 -51.5 -171t-157.5 -108v-4q119 -25 182 -121t63 -237q0 -57 -9 -109.5t-38.5 -115t-78 -107.5t-135.5 -76t-201.5 -31t-201.5 31t-135.5 76t-78 107.5t-38.5 115 t-9 109.5zM324 414q0 -250 167.5 -250t167.5 250t-167.5 250t-167.5 -250zM348 1059q0 -203 143.5 -203t143.5 203q0 199 -143.5 199t-143.5 -199z" />
<glyph unicode="9" d="M29 932q0 518 469 518q117 0 201.5 -38t133 -97.5t77 -152.5t36.5 -182t8 -208q0 -76 -1 -123t-4 -117.5t-10 -114.5t-18.5 -103.5t-31 -97.5t-45 -81t-62.5 -69.5t-82 -50t-104 -34t-129 -10.5q-176 0 -287.5 86t-116.5 281h283q0 -174 133 -174q57 0 94 26.5t55.5 80 t24.5 113.5t6 148v70h-4q-82 -123 -272 -123q-182 0 -268 122t-86 331zM324 971q0 -147 36.5 -211t122.5 -64q88 0 125 63.5t37 211.5q0 141 -32.5 213.5t-129 72.5t-128 -71.5t-31.5 -214.5z" />
<glyph unicode=":" horiz-adv-x="491" d="M111 0v319h270v-319h-270zM111 748v319h270v-319h-270z" />
<glyph unicode=";" horiz-adv-x="491" d="M111 0v319h270v-266q0 -180 -58.5 -277.5t-211.5 -113.5v143q51 10 78.5 56.5t27.5 105.5v33h-106zM111 748v319h270v-319h-270z" />
<glyph unicode="&#x37e;" horiz-adv-x="491" d="M111 0v319h270v-266q0 -180 -58.5 -277.5t-211.5 -113.5v143q51 10 78.5 56.5t27.5 105.5v33h-106zM111 748v319h270v-319h-270z" />
<glyph unicode="&#x3c;" horiz-adv-x="1228" d="M96 410v217l1037 426v-254l-693 -281l693 -280v-254z" />
<glyph unicode="=" horiz-adv-x="1228" d="M96 168v254h1037v-254h-1037zM96 614v254h1037v-254h-1037z" />
<glyph unicode="&#x3e;" horiz-adv-x="1228" d="M96 -16v254l692 280l-692 281v254l1037 -426v-217z" />
<glyph unicode="?" horiz-adv-x="985" d="M74 1010v47q0 190 104.5 306t300.5 116q211 0 321.5 -105.5t110.5 -290.5q0 -172 -129 -319l-82 -92q-57 -63 -78.5 -111.5t-21.5 -124.5v-30h-254v79q0 100 28.5 171t98.5 151l78 88q78 86 78 217q0 80 -36 127t-104 47q-145 0 -145 -225v-51h-270zM332 0v270h282v-270 h-282z" />
<glyph unicode="@" horiz-adv-x="1638" d="M59 731.5q0 315.5 222.5 537.5t538 222t537.5 -173t222 -448q0 -123 -41 -226t-101.5 -167.5t-133 -109.5t-134 -63.5t-104.5 -18.5q-123 0 -133 108h-4q-104 -109 -246 -108q-117 0 -208 96t-91 252q0 199 123 351.5t315 152.5q164 0 248 -138l27 109h180l-119 -512 q-12 -59 -12 -84q0 -41 41 -41q70 0 141.5 103.5t71.5 252.5q0 201 -163 336t-382 135q-236 0 -400.5 -172t-164.5 -397q0 -233 172 -399t407 -166q225 0 445 131h182q-229 -324 -676 -324q-315 0 -537.5 222.5t-222.5 538zM612 668q0 -70 41 -118t105 -48q100 0 168.5 82 t68.5 180q0 66 -45 111t-108 45q-94 0 -162 -81t-68 -171z" />
<glyph unicode="A" horiz-adv-x="1138" d="M0 0l387 1462h365l387 -1462h-308l-67 309h-389l-68 -309h-307zM426 551h287l-142 657h-4z" />
<glyph unicode="B" horiz-adv-x="1138" d="M102 1462h494q416 0 416 -370q0 -121 -56.5 -205t-164.5 -115v-4q125 -16 195.5 -105.5t70.5 -234.5q0 -190 -107.5 -309t-349.5 -119h-498v1462zM397 217h115q115 0 176.5 50t61.5 171q0 219 -226 219h-127v-440zM397 862h84q125 0 180.5 44t55.5 149q0 102 -50.5 146 t-162.5 44h-107v-383z" />
<glyph unicode="C" horiz-adv-x="1099" d="M72 731.5q0 149.5 9 251.5t39 205.5t83 165t145 99.5t221 38q121 0 209 -36t133 -85t72 -127t33 -137t6 -137h-295q0 164 -39 234.5t-137 70.5q-109 0 -146.5 -122t-37.5 -441q0 -217 21.5 -333t60 -153t106.5 -37q90 0 137 76t47 295h295q0 -131 -19.5 -228.5 t-67.5 -183.5t-143 -131t-235 -45q-129 0 -221 38t-145 99.5t-83 165t-39 206t-9 252z" />
<glyph unicode="D" horiz-adv-x="1175" d="M117 1462h483q150 0 247 -48t148.5 -147.5t69.5 -219t18 -295.5q0 -401 -108.5 -576.5t-392.5 -175.5h-465v1462zM412 217h131q150 0 197.5 109.5t47.5 416.5q0 137 -8 220.5t-33.5 153t-77 99t-132.5 29.5h-125v-1028z" />
<glyph unicode="E" horiz-adv-x="985" d="M102 0v1462h818v-241h-523v-344h492v-242h-492v-393h543v-242h-838z" />
<glyph unicode="F" horiz-adv-x="948" d="M102 0v1462h818v-241h-523v-344h492v-242h-492v-635h-295z" />
<glyph unicode="G" horiz-adv-x="1138" d="M88 748q0 385 109.5 564t382.5 179q236 0 345 -117t109 -346h-282q0 94 -42 170t-126 76q-106 0 -153.5 -119t-47.5 -393q0 -293 42 -433.5t161 -140.5q63 0 122.5 62.5t59.5 171.5v149h-195v217h478v-788h-217v135h-5q-102 -164 -307 -164q-133 0 -220 48.5t-133 152.5 t-63.5 238.5t-17.5 337.5z" />
<glyph unicode="H" horiz-adv-x="1138" d="M102 0v1462h295v-559h344v559h295v-1462h-295v649h-344v-649h-295z" />
<glyph unicode="I" horiz-adv-x="528" d="M117 0v1462h295v-1462h-295z" />
<glyph unicode="J" horiz-adv-x="948" d="M31 399v64h270v-45q0 -123 27.5 -176.5t103.5 -53.5t103.5 53.5t27.5 176.5v1044h295v-1052q0 -231 -107.5 -335t-332.5 -104q-215 0 -301 115.5t-86 312.5z" />
<glyph unicode="K" horiz-adv-x="1099" d="M102 0v1462h295v-585h4l373 585h320l-398 -626l443 -836h-332l-301 600l-109 -166v-434h-295z" />
<glyph unicode="L" horiz-adv-x="948" d="M102 0v1462h295v-1220h523v-242h-818z" />
<glyph unicode="M" horiz-adv-x="1515" d="M109 0v1462h438l209 -1032h4l211 1032h436v-1462h-270v1167h-4l-261 -1167h-229l-260 1167h-4v-1167h-270z" />
<glyph unicode="N" horiz-adv-x="1175" d="M102 0v1462h340l357 -1001h4v1001h270v-1462h-336l-360 1024h-4v-1024h-271z" />
<glyph unicode="O" horiz-adv-x="1138" d="M72 731.5q0 149.5 9 251.5t39 205.5t83 165t145 99.5t221 38t221.5 -38t145.5 -99.5t83 -165t39 -205.5t9 -251.5t-9 -252t-39 -206t-83 -165t-145.5 -99.5t-221.5 -38t-221 38t-145 99.5t-83 165t-39 206t-9 252zM367 731q0 -311 38.5 -427t163.5 -116t164 116t39 427 q0 309 -39 426t-164 117t-163.5 -117t-38.5 -426z" />
<glyph unicode="P" horiz-adv-x="1062" d="M102 0v1462h516q209 0 305.5 -126t96.5 -312q0 -221 -124 -330.5t-341 -109.5h-158v-584h-295zM397 1245v-444h131q90 0 143.5 55t53.5 164q0 225 -205 225h-123z" />
<glyph unicode="Q" horiz-adv-x="1138" d="M72 731.5q0 149.5 9 251.5t39 205.5t83 165t145 99.5t221 38t221.5 -38t145.5 -99.5t83 -165t39 -205.5t9 -252q0 -213 -22.5 -355.5t-90.5 -238.5l158 -160l-174 -157l-174 180q-47 -16 -90 -23q-47 -6 -105 -6q-129 0 -221 38t-145 99.5t-83 165t-39 206t-9 252z M367 731q0 -311 38.5 -427t163.5 -116t164 116t39 427q0 309 -39 426t-164 117t-163.5 -117t-38.5 -426z" />
<glyph unicode="R" horiz-adv-x="1138" d="M102 0v1462h545q186 0 287.5 -95t101.5 -282q0 -309 -243 -360v-4q143 -18 187 -109.5t48 -337.5q2 -127 14.5 -183t51.5 -79v-12h-320q-33 43 -37 154l-8 280q-10 184 -174 184h-158v-618h-295zM397 823h123q221 0 221 219q0 203 -204 203h-140v-422z" />
<glyph unicode="S" horiz-adv-x="1062" d="M45 397v60h295v-43q0 -113 42 -169.5t153 -56.5q74 0 125 47.5t51 133.5q0 96 -55.5 147t-206.5 102q-203 68 -293 167.5t-90 275.5q0 211 118.5 320.5t333.5 109.5q209 0 331 -96.5t122 -296.5v-41h-283q0 217 -160 217q-168 0 -168 -170q0 -72 32 -117t120 -82l227 -98 q160 -72 219.5 -159t59.5 -228q0 -449 -508 -449q-244 0 -354.5 108.5t-110.5 317.5z" />
<glyph unicode="T" d="M25 1221v241h933v-241h-319v-1221h-295v1221h-319z" />
<glyph unicode="U" horiz-adv-x="1101" d="M84 442v1020h295v-1020q0 -121 37 -187.5t135 -66.5t135 67t37 187v1020h295v-1020q0 -133 -38 -228t-106.5 -146.5t-147.5 -74t-175 -22.5q-98 0 -175 19.5t-146.5 69t-107.5 145.5t-38 237z" />
<glyph unicode="V" horiz-adv-x="1062" d="M6 1462h316l206 -1081h7l217 1081h305l-336 -1462h-379z" />
<glyph unicode="W" horiz-adv-x="1556" d="M16 1462h283l162 -1081h4l172 1081h283l172 -1081h4l161 1081h283l-266 -1462h-330l-164 1061h-4l-164 -1061h-329z" />
<glyph unicode="X" horiz-adv-x="1099" d="M12 0l365 739l-336 723h326l188 -473l186 473h322l-340 -723l364 -739h-331l-211 496l-209 -496h-324z" />
<glyph unicode="Y" horiz-adv-x="1064" d="M6 1462h332l192 -565h5l204 565h320l-379 -887v-575h-295v575z" />
<glyph unicode="Z" horiz-adv-x="985" d="M49 0v215l539 1006h-502v241h842v-223l-547 -997h555v-242h-887z" />
<glyph unicode="[" horiz-adv-x="645" d="M164 -377v1839h469v-205h-215v-1429h215v-205h-469z" />
<glyph unicode="\" horiz-adv-x="679" d="M-6 1491h229l463 -1520h-229z" />
<glyph unicode="]" horiz-adv-x="645" d="M12 -172h215v1429h-215v205h469v-1839h-469v205z" />
<glyph unicode="^" horiz-adv-x="1228" d="M115 633l385 788h229l385 -788h-254l-246 506l-245 -506h-254z" />
<glyph unicode="_" horiz-adv-x="1024" d="M0 -154h1024v-102h-1024v102z" />
<glyph unicode="`" horiz-adv-x="454" d="M-33 1528h283l110 -295h-192z" />
<glyph unicode="a" horiz-adv-x="985" d="M57 287q0 152 63.5 227.5t215.5 116.5l160 43q63 16 87.5 45t24.5 84q0 135 -131 135t-131 -143v-31h-254v27q0 178 106.5 258.5t280.5 80.5q233 0 316.5 -84.5t83.5 -252.5v-580q0 -127 34 -213h-270q-18 33 -35 115h-4q-47 -84 -110.5 -114t-169.5 -30 q-135 0 -201 94.5t-66 221.5zM328 317q0 -68 26.5 -110.5t79.5 -42.5q68 0 121 43t53 127v217q-49 -39 -121 -55q-84 -18 -121.5 -61.5t-37.5 -117.5z" />
<glyph unicode="b" horiz-adv-x="1024" d="M94 0v1462h283v-463h4q88 131 237 131q174 0 256 -137t82 -442t-81.5 -442.5t-256.5 -137.5q-162 0 -249 146h-4v-117h-271zM377 550.5q0 -192.5 30.5 -277.5t118.5 -85t118 85t30 277.5t-30 277.5t-118 85t-118.5 -85t-30.5 -277.5z" />
<glyph unicode="c" horiz-adv-x="948" d="M53 551q0 319 116 449t331 130q193 0 294 -112.5t101 -312.5h-270q0 221 -127 221q-98 0 -130 -85t-32 -292q0 -213 30.5 -299t120.5 -86q72 0 105 61.5t33 196.5h270q0 -223 -100.5 -337t-319.5 -114t-320.5 129t-101.5 451z" />
<glyph unicode="d" horiz-adv-x="1024" d="M68 551q0 305 81.5 442t256.5 137q150 0 237 -131h4v463h283v-1462h-271v117h-4q-88 -145 -249 -146q-174 0 -256 137.5t-82 442.5zM350 550.5q0 -192.5 30 -277.5t118 -85t118.5 85t30.5 277.5t-30.5 277.5t-118.5 85t-118 -85t-30 -277.5z" />
<glyph unicode="e" horiz-adv-x="948" d="M53 561q0 98 8.5 174t36 154t74.5 128t128 81.5t192 31.5q231 0 317 -140t86 -419v-63h-559v-88q0 -111 32.5 -183.5t106.5 -72.5q70 0 103.5 49t46.5 158h254q-16 -399 -400 -400q-86 0 -152.5 19.5t-110.5 48.5t-75.5 79t-48 95t-26 112.5t-11.5 115.5t-2 120zM336 676 h289q-4 139 -33 200.5t-111 61.5q-78 0 -111.5 -63.5t-33.5 -155.5v-43z" />
<glyph unicode="f" horiz-adv-x="606" d="M12 909v193h144v125q0 143 74.5 203.5t220.5 60.5q74 0 151 -6v-201q-10 2 -29 2h-26q-59 0 -84 -20.5t-25 -67.5v-96h164v-193h-164v-909h-282v909h-144z" />
<glyph unicode="g" horiz-adv-x="1024" d="M72 569q0 113 12 200t46 175t106.5 137t181.5 49q154 0 227 -151h4v123h271v-1047q0 -223 -107.5 -327.5t-351.5 -104.5q-180 0 -277.5 77t-97.5 218h270q0 -53 43 -84q45 -31 95 -31q156 0 155 199v145h-4q-94 -135 -235 -135q-172 0 -255 131t-83 426zM354 516 q0 -133 30 -210t112 -77q86 0 119.5 82t33.5 234q0 205 -31.5 286.5t-115.5 81.5q-90 0 -119 -83t-29 -314z" />
<glyph unicode="h" horiz-adv-x="1024" d="M94 1462h283v-473h4q82 141 268 141q281 0 281 -313v-817h-283v760q0 84 -28.5 118.5t-92.5 34.5q-150 0 -149 -182v-731h-283v1462z" />
<glyph unicode="i" horiz-adv-x="491" d="M104 0v1102h283v-1102h-283zM104 1237v242h283v-242h-283z" />
<glyph unicode="j" horiz-adv-x="491" d="M-51 -152q12 -4 22 -4h23q72 0 91 38t19 138v1082h283v-1178q0 -147 -70.5 -215.5t-253.5 -68.5q-33 0 -114 4v204zM104 1237v242h283v-242h-283z" />
<glyph unicode="k" horiz-adv-x="1024" d="M104 0v1462h283v-772h4l285 412h311l-317 -434l364 -668h-311l-236 453l-100 -131v-322h-283z" />
<glyph unicode="l" horiz-adv-x="491" d="M104 0v1462h283v-1462h-283z" />
<glyph unicode="m" horiz-adv-x="1552" d="M94 0v1102h271v-113h4q100 141 278 141q207 0 254 -176h4q66 176 279 176q274 0 274 -329v-801h-282v770q0 143 -111 143q-147 0 -147 -188v-725h-283v770q0 143 -111 143q-147 0 -147 -188v-725h-283z" />
<glyph unicode="n" horiz-adv-x="1024" d="M94 0v1102h271v-129h4q86 158 280 157q281 0 281 -313v-817h-283v760q0 84 -28.5 118.5t-92.5 34.5q-150 0 -149 -182v-731h-283z" />
<glyph unicode="o" d="M57 551q0 293 100.5 436t334.5 143q7 0 13 1q233 0 325 -137q95 -140 96 -443q0 -293 -100.5 -436.5t-333.5 -143.5h-14q-233 0 -325 137q-96 140 -96 443zM340 551q0 -98 4 -157.5t18.5 -118t46 -85t83.5 -26.5q84 0 117.5 88t33.5 299t-34 299t-117 88q-51 0 -83 -26.5 t-46.5 -85t-18.5 -118t-4 -157.5z" />
<glyph unicode="p" horiz-adv-x="1024" d="M94 -360v1462h271v-117h4q88 145 249 145q174 0 256 -137t82 -442t-81.5 -442.5t-256.5 -137.5q-150 0 -237 131h-4v-462h-283zM377 550.5q0 -192.5 30.5 -277.5t118.5 -85t118 85t30 277.5t-30 277.5t-118 85t-118.5 -85t-30.5 -277.5z" />
<glyph unicode="q" horiz-adv-x="1024" d="M68 551q0 305 81.5 442t256.5 137q162 0 249 -145h4v117h271v-1462h-283v462h-4q-88 -131 -237 -131q-174 0 -256 137.5t-82 442.5zM350 550.5q0 -192.5 30 -277.5t118 -85t118.5 85t30.5 277.5t-30.5 277.5t-118.5 85t-118 -85t-30 -277.5z" />
<glyph unicode="r" horiz-adv-x="681" d="M94 0v1102h271v-148h4q94 176 254 176q18 0 51 -4v-270q-61 4 -88 4q-86 0 -147.5 -48t-61.5 -150v-662h-283z" />
<glyph unicode="s" horiz-adv-x="909" d="M47 322v38h254v-36q0 -74 38 -117t110 -43q143 0 143 131q0 84 -103 125l-198 72q-236 84 -236 307q0 145 100.5 238t305.5 93q377 0 377 -313v-45h-254q0 86 -29 126t-96 40q-57 0 -95 -30.5t-38 -88.5q0 -90 123 -129l169 -57q133 -45 188.5 -118t55.5 -198 q0 -168 -112.5 -257t-296.5 -89q-227 0 -316.5 89.5t-89.5 261.5z" />
<glyph unicode="t" horiz-adv-x="606" d="M12 909v193h144v315h282v-315h164v-193h-164v-596q0 -68 20.5 -94t80.5 -26q27 0 63 4v-197q-127 -12 -184 -12q-162 0 -212 59t-50 232v630h-144z" />
<glyph unicode="u" horiz-adv-x="1024" d="M94 285v817h283v-760q0 -84 28.5 -119t92.5 -35q150 0 149 183v731h283v-1102h-271v129h-4q-86 -158 -280 -158q-281 1 -281 314z" />
<glyph unicode="v" horiz-adv-x="909" d="M10 1102h295l158 -789h4l149 789h283l-276 -1102h-328z" />
<glyph unicode="w" horiz-adv-x="1441" d="M14 1102h283l129 -783h4l137 783h307l146 -783h4l133 783h270l-237 -1102h-322l-145 782h-4l-137 -782h-328z" />
<glyph unicode="x" horiz-adv-x="946" d="M14 0l299 567l-286 535h295l151 -332l152 332h295l-287 -535l299 -567h-295l-164 360l-164 -360h-295z" />
<glyph unicode="y" horiz-adv-x="909" d="M10 1102h295l164 -762h4l143 762h283l-266 -1028q-39 -150 -71 -230t-81 -129t-108.5 -62t-163.5 -13h-115v210q37 -6 74 -6q139 0 151 156z" />
<glyph unicode="z" horiz-adv-x="872" d="M49 0v217l440 655h-419v230h753v-217l-440 -656h440v-229h-774z" />
<glyph unicode="{" horiz-adv-x="645" d="M61 459v168q53 0 94.5 48t41.5 118v395q0 131 54 202.5t159 71.5h182v-205h-62q-80 0 -79 -147v-340q0 -92 -40 -152.5t-108 -72.5v-4q68 -12 108 -72.5t40 -153.5v-340q0 -147 79 -147h62v-205h-182q-104 0 -158.5 72t-54.5 203v395q0 70 -41.5 118t-94.5 48z" />
<glyph unicode="|" horiz-adv-x="454" d="M100 -29v1520h254v-1520h-254z" />
<glyph unicode="}" horiz-adv-x="645" d="M53 -172h62q80 0 80 147v340q0 92 39.5 152.5t107.5 73.5v4q-68 12 -107.5 72.5t-39.5 152.5v340q0 147 -80 147h-62v205h183q104 0 158.5 -71.5t54.5 -202.5v-395q0 -70 40.5 -118t94.5 -48v-168q-53 0 -94 -48.5t-41 -117.5v-395q0 -131 -54.5 -203t-158.5 -72h-183 v205z" />
<glyph unicode="~" horiz-adv-x="1228" d="M141 539q94 176 252 176q109 0 223 -60q152 -80 213 -80q55 0 109.5 47.5t75.5 92.5l73 -217q-94 -176 -251 -176q-106 0 -241.5 69.5t-195.5 69.5q-55 0 -109 -47t-75 -92z" />
<glyph unicode="&#xa1;" horiz-adv-x="606" d="M162 115l39 579h205l38 -579v-475h-282v475zM162 831v271h282v-271h-282z" />
<glyph unicode="&#xa2;" d="M68 543q0 127 15 220t55 177t119 132t198 58v156h106v-156q354 -20 354 -417h-270q0 180 -84 213v-750q84 49 84 252h270q0 -209 -83.5 -321.5t-270.5 -135.5v-180h-106v180q-88 4 -153.5 31t-121 87.5t-84 174t-28.5 279.5zM350 555q0 -111 3 -170t28 -127t74 -82v750 q-63 -23 -84 -109t-21 -262z" />
<glyph unicode="&#xa3;" d="M10 164q109 70 174.5 165t65.5 197q0 43 -23 101h-209v168h138q-92 178 -93 290q0 160 113 262.5t326 102.5q438 0 446 -424h-270q0 231 -160 231q-90 0 -131 -46t-41 -115q0 -76 53 -185l58 -116h342v-168h-289q10 -31 10 -80q0 -90 -41 -162t-143 -158l8 -4 q33 14 92 15q27 0 112 -31t122 -31q82 0 213 86l90 -192q-150 -98 -305 -99q-45 0 -176.5 37t-196.5 37q-86 0 -201 -57z" />
<glyph unicode="&#xa4;" d="M0 346l102 103q-80 121 -79 262q0 143 79 262l-102 102l125 127l104 -102q119 80 262.5 80t262.5 -80l104 102l125 -127l-102 -102q80 -119 80 -262.5t-80 -261.5l102 -103l-125 -127l-104 105q-119 -82 -262 -82q-147 0 -263 82l-104 -105zM240 711q0 -123 68.5 -194 t183 -71t183 71t68.5 194t-68.5 193.5t-183 70.5t-183 -70.5t-68.5 -193.5z" />
<glyph unicode="&#xa5;" d="M-35 1421h305l219 -551h5l229 551h295l-297 -624h188v-168h-268l-23 -47v-88h291v-168h-291v-326h-253v326h-291v168h291v88l-23 47h-268v168h188z" />
<glyph unicode="&#xa6;" horiz-adv-x="454" d="M100 -29v555h254v-555h-254zM100 936v555h254v-555h-254z" />
<glyph unicode="&#xa7;" horiz-adv-x="985" d="M27 627q0 96 49 173t135 120q-123 92 -123 233q0 174 114.5 256t305.5 82q199 0 294 -89t95 -243h-270q0 61 -29 101q-31 39 -113 38q-59 0 -93 -32.5t-34 -83.5q0 -78 131 -142l244 -114q225 -106 225 -334q0 -80 -45 -166t-114 -125q111 -90 110 -254q0 -358 -417 -358 q-205 0 -309.5 94t-104.5 262v31h270v-31q0 -76 40 -120t104 -44q68 0 101.5 40t33.5 97q0 109 -131 172l-252 121q-217 105 -217 316zM268 668q0 -74 70 -111l203 -111q41 -20 80 -51q96 80 96 154q0 53 -31 90t-108 78l-197 104q-113 -65 -113 -153z" />
<glyph unicode="&#xa8;" horiz-adv-x="454" d="M-63 1260v241h229v-241h-229zM289 1260v241h229v-241h-229z" />
<glyph unicode="&#xa9;" horiz-adv-x="1638" d="M59 731.5q0 315.5 222.5 537.5t538 222t537.5 -222t222 -537.5t-222 -538t-537.5 -222.5t-538 222.5t-222.5 538zM289 731q0 -225 152.5 -384t377.5 -159t378 159t153 384t-153 384t-378 159t-377.5 -159t-152.5 -384zM426 737q0 195 112.5 321t305.5 126 q143 0 245.5 -83t120.5 -231h-196q-39 137 -180 138q-102 0 -159 -75t-57 -196q0 -115 58.5 -192.5t154.5 -77.5q76 0 124.5 39t58.5 104h205q-25 -150 -128.5 -234.5t-240.5 -84.5q-190 0 -307 128t-117 318z" />
<glyph unicode="&#xaa;" horiz-adv-x="643" d="M20 940q0 96 41 142t142 67l119 25q74 18 73 69q0 76 -76 76q-84 0 -83 -80v-18h-193v26q0 203 281 203q164 0 220 -51t56 -152v-352q0 -80 23 -129h-205q-6 8 -23 72q-35 -51 -75.5 -68.5t-116.5 -17.5q-94 0 -138.5 55t-44.5 133zM225 969q0 -86 66 -86q41 0 72.5 23.5 t31.5 72.5v121q-25 -18 -71 -31q-99 -20 -99 -100z" />
<glyph unicode="&#xab;" horiz-adv-x="872" d="M106 426v332l306 246v-271l-162 -141l162 -141v-271zM461 426v332l305 246v-271l-162 -141l162 -141v-271z" />
<glyph unicode="&#xac;" horiz-adv-x="1228" d="M96 614v254h1037v-667h-254v413h-783z" />
<glyph unicode="&#xad;" horiz-adv-x="757" d="M90 471v242h578v-242h-578z" />
<glyph unicode="&#xae;" horiz-adv-x="1638" d="M59 731.5q0 315.5 222.5 537.5t538 222t537.5 -222t222 -537.5t-222 -538t-537.5 -222.5t-538 222.5t-222.5 538zM289 731q0 -225 152.5 -384t377.5 -159t378 159t153 384t-153 384t-378 159t-377.5 -159t-152.5 -384zM522 1141h320q315 0 315 -254q0 -98 -56.5 -156.5 t-146.5 -71.5l203 -337h-196l-193 329h-66v-329h-180v819zM702 795h138q68 0 102.5 20.5t34.5 81.5q0 100 -156 100h-119v-202z" />
<glyph unicode="&#xaf;" horiz-adv-x="454" d="M-74 1303v155h602v-155h-602z" />
<glyph unicode="&#xb0;" horiz-adv-x="819" d="M106 1147q0 127 88.5 215t215.5 88t215 -88t88 -215t-88 -215t-215 -88t-215.5 88t-88.5 215zM262 1146.5q0 -61.5 43 -104.5t104.5 -43t104.5 43t43 104.5t-43 104.5t-104.5 43t-104.5 -43t-43 -104.5z" />
<glyph unicode="&#xb1;" horiz-adv-x="1228" d="M96 0v254h1037v-254h-1037zM96 561v254h391v221h254v-221h392v-254h-392v-221h-254v221h-391z" />
<glyph unicode="&#xb2;" horiz-adv-x="638" d="M0 573q0 240 207 385l102 74q100 72 101 166q0 43 -24 69.5t-64 26.5q-104 0 -105 -149h-217v51q0 254 328 254q311 0 311 -221q0 -88 -28.5 -147.5t-106.5 -118.5l-117 -91q-94 -72 -108 -131h360v-168h-639z" />
<glyph unicode="&#xb3;" horiz-adv-x="638" d="M0 831v21h217q4 -137 100 -137q92 0 93 108q0 129 -123 129h-58v144h58q55 0 82.5 31.5t27.5 76.5q0 39 -23.5 64.5t-60.5 25.5q-94 0 -94 -123h-205q0 139 74 211q70 68 223 68q156 0 229.5 -53.5t73.5 -169.5q0 -80 -37.5 -130t-105.5 -65v-4q168 -31 168 -205 q0 -264 -346 -264q-293 0 -293 272z" />
<glyph unicode="&#xb4;" horiz-adv-x="454" d="M94 1233l111 295h282l-200 -295h-193z" />
<glyph unicode="&#xb5;" horiz-adv-x="1024" d="M94 -360v1462h283v-760q0 -84 28.5 -119t92.5 -35q150 0 149 183v731h283v-1102h-271v129h-4q-43 -78 -102 -118t-115 -40q-33 0 -61 17v-348h-283z" />
<glyph unicode="&#xb6;" d="M2 1067q0 221 104.5 308t301.5 87h548v-1745h-217v1553h-149v-1553h-217v969q-182 0 -276.5 97.5t-94.5 283.5z" />
<glyph unicode="&#xb7;" horiz-adv-x="491" d="M47 578q0 84 57.5 141t141.5 57t141 -57t57 -141t-57 -141.5t-141 -57.5t-141.5 57.5t-57.5 141.5z" />
<glyph unicode="&#xb8;" horiz-adv-x="454" d="M0 -406l39 95q57 -31 141 -31q43 0 73 18.5t30 49.5q0 61 -90 65q-37 0 -70 -12l-45 41l117 180h106l-78 -119q31 10 68 10q72 0 124 -39.5t48 -107.5q0 -90 -66.5 -139t-191.5 -49q-135 -1 -205 38z" />
<glyph unicode="&#xb9;" horiz-adv-x="638" d="M49 1167v144h17q197 0 223 139h176v-877h-229v594h-187z" />
<glyph unicode="&#xba;" horiz-adv-x="643" d="M25 1100q0 180 66.5 265t230.5 85h15q156 0 217 -80q65 -84 64 -270q0 -178 -66.5 -263t-229.5 -85q-8 0 -16 -1q-156 0 -217 80q-64 85 -64 269zM229 1099.5q0 -108.5 17.5 -162.5t75.5 -54q51 0 71.5 50t20.5 167t-20.5 168t-71.5 51q-55 0 -74 -55.5t-19 -164z" />
<glyph unicode="&#xbb;" horiz-adv-x="872" d="M106 180v271l162 141l-162 141v271l306 -246v-332zM461 180v271l162 141l-162 141v271l305 -246v-332z" />
<glyph unicode="&#xbc;" horiz-adv-x="1476" d="M0 1167v144h16q197 0 224 139h176v-877h-230v594h-186zM197 -63l831 1548h182l-831 -1548h-182zM821 158v186l312 533h253v-551h91v-168h-91v-158h-217v158h-348zM989 326h180v297h-4z" />
<glyph unicode="&#xbd;" horiz-adv-x="1476" d="M0 1167v144h16q197 0 224 139h176v-877h-230v594h-186zM147 -63l832 1548h182l-831 -1548h-183zM838 0q0 240 206 385l103 74q100 72 100 166q0 43 -23.5 69.5t-64.5 26.5q-104 0 -104 -150h-217v52q0 254 327 254q311 0 312 -222q0 -88 -29 -147t-107 -119l-116 -90 q-94 -72 -109 -131h361v-168h-639z" />
<glyph unicode="&#xbe;" horiz-adv-x="1476" d="M0 831v21h217q4 -137 100 -137q92 0 93 108q0 129 -123 129h-58v144h58q55 0 82.5 31.5t27.5 76.5q0 39 -23.5 64.5t-60.5 25.5q-94 0 -94 -123h-205q0 139 74 211q70 68 223 68q156 0 229.5 -53.5t73.5 -169.5q0 -80 -37.5 -130t-105.5 -65v-4q168 -31 168 -205 q0 -264 -346 -264q-293 0 -293 272zM276 -63l832 1548h182l-831 -1548h-183zM821 158v186l312 533h253v-551h91v-168h-91v-158h-217v158h-348zM989 326h180v297h-4z" />
<glyph unicode="&#xbf;" horiz-adv-x="985" d="M74 18q0 172 129 320l82 92q57 63 78.5 111.5t21.5 124.5v30h254v-80q0 -100 -28.5 -170.5t-98.5 -150.5l-78 -88q-78 -86 -78 -217q0 -80 36 -127t104 -47q145 0 145 225v51h270v-47q0 -190 -104.5 -306t-300.5 -116q-211 0 -321.5 105.5t-110.5 289.5zM371 831v271h282 v-271h-282z" />
<glyph unicode="&#xc0;" horiz-adv-x="1138" d="M0 0l387 1462h365l387 -1462h-308l-67 309h-389l-68 -309h-307zM303 1843h283l110 -295h-192zM426 551h287l-142 657h-4z" />
<glyph unicode="&#xc1;" horiz-adv-x="1138" d="M0 0l387 1462h365l387 -1462h-308l-67 309h-389l-68 -309h-307zM426 551h287l-142 657h-4zM434 1548l111 295h282l-200 -295h-193z" />
<glyph unicode="&#xc2;" horiz-adv-x="1138" d="M0 0l387 1462h365l387 -1462h-308l-67 309h-389l-68 -309h-307zM260 1548l160 295h295l159 -295h-217l-94 174l-98 -174h-205zM426 551h287l-142 657h-4z" />
<glyph unicode="&#xc3;" horiz-adv-x="1138" d="M0 0l387 1462h365l387 -1462h-308l-67 309h-389l-68 -309h-307zM248 1567q35 254 190 254q57 0 88 -15l99 -43q31 -12 61 -12q27 0 42 24.5t15 49.5h148q-10 -113 -61.5 -183.5t-129.5 -70.5q-45 0 -129 34.5t-114 34.5q-51 0 -66 -73h-143zM426 551h287l-142 657h-4z " />
<glyph unicode="&#xc4;" horiz-adv-x="1138" d="M0 0l387 1462h365l387 -1462h-308l-67 309h-389l-68 -309h-307zM279 1579v242h229v-242h-229zM426 551h287l-142 657h-4zM631 1579v242h229v-242h-229z" />
<glyph unicode="&#xc5;" horiz-adv-x="1138" d="M0 0l387 1462h365l387 -1462h-308l-67 309h-389l-68 -309h-307zM340 1729q0 98 67.5 161.5t164 63.5t164 -63.5t67.5 -162t-66.5 -160t-165.5 -61.5q-100 0 -165.5 61t-65.5 161zM426 551h287l-142 657h-4zM455 1728.5q0 -49.5 33.5 -83t83 -33.5t83 33.5t33.5 83 t-33.5 83t-83 33.5t-83 -33.5t-33.5 -83z" />
<glyph unicode="&#xc6;" horiz-adv-x="1554" d="M-10 0l551 1462h948v-241h-481v-344h450v-242h-450v-393h501v-242h-784v309h-326l-102 -309h-307zM479 551h246v682h-18z" />
<glyph unicode="&#xc7;" horiz-adv-x="1099" d="M72 731q0 150 9 252t39 205.5t83 165t145 99.5t221 38q121 0 209 -36t133 -85t72 -127t33 -137t6 -137h-295q0 164 -39 234.5t-137 70.5q-109 0 -146.5 -122t-37.5 -441q0 -217 21.5 -333t60 -153t106.5 -37q90 0 137 76t47 295h295q0 -203 -50 -339t-179 -202 q-82 -41 -201 -47l-59 -90q31 10 67 10q72 0 124 -39.5t48 -107.5q0 -90 -66.5 -139t-191.5 -49q-135 0 -204 38l38 95q57 -31 142 -31q43 0 72.5 18.5t29.5 49.5q0 61 -90 65q-35 0 -70 -12l-45 41l101 155q-119 8 -195 52q-139 82 -186 249.5t-47 454.5z" />
<glyph unicode="&#xc8;" horiz-adv-x="985" d="M102 0v1462h818v-241h-523v-344h492v-242h-492v-393h543v-242h-838zM260 1843h283l110 -295h-192z" />
<glyph unicode="&#xc9;" horiz-adv-x="985" d="M102 0v1462h818v-241h-523v-344h492v-242h-492v-393h543v-242h-838zM408 1548l110 295h283l-201 -295h-192z" />
<glyph unicode="&#xca;" horiz-adv-x="985" d="M102 0v1462h818v-241h-523v-344h492v-242h-492v-393h543v-242h-838zM207 1548l160 295h295l159 -295h-217l-94 174l-98 -174h-205z" />
<glyph unicode="&#xcb;" horiz-adv-x="985" d="M102 0v1462h818v-241h-523v-344h492v-242h-492v-393h543v-242h-838zM217 1575v242h229v-242h-229zM569 1575v242h230v-242h-230z" />
<glyph unicode="&#xcc;" horiz-adv-x="528" d="M20 1843h283l111 -295h-193zM117 0v1462h295v-1462h-295z" />
<glyph unicode="&#xcd;" horiz-adv-x="528" d="M117 0v1462h295v-1462h-295zM119 1548l110 295h283l-201 -295h-192z" />
<glyph unicode="&#xce;" horiz-adv-x="528" d="M-39 1548l160 295h295l159 -295h-217l-94 174l-98 -174h-205zM117 0v1462h295v-1462h-295z" />
<glyph unicode="&#xcf;" horiz-adv-x="528" d="M-25 1575v242h230v-242h-230zM117 0v1462h295v-1462h-295zM328 1575v242h229v-242h-229z" />
<glyph unicode="&#xd0;" horiz-adv-x="1175" d="M0 645v217h117v600h483q150 0 247 -48t148.5 -147.5t69.5 -219t18 -295.5q0 -401 -108.5 -576.5t-392.5 -175.5h-465v645h-117zM412 217h131q150 0 197.5 109.5t47.5 416.5q0 137 -8 220.5t-33.5 153t-77 99t-132.5 29.5h-125v-383h190v-217h-190v-428z" />
<glyph unicode="&#xd1;" horiz-adv-x="1175" d="M102 0v1462h340l357 -1001h4v1001h270v-1462h-336l-360 1024h-4v-1024h-271zM270 1567q35 254 191 254q57 0 88 -15l98 -43q31 -12 62 -12q27 0 42 24.5t15 49.5h147q-10 -113 -61 -183.5t-129 -70.5q-45 0 -129 34.5t-115 34.5q-49 0 -65 -73h-144z" />
<glyph unicode="&#xd2;" horiz-adv-x="1138" d="M72 731.5q0 149.5 9 251.5t39 205.5t83 165t145 99.5t221 38t221.5 -38t145.5 -99.5t83 -165t39 -205.5t9 -251.5t-9 -252t-39 -206t-83 -165t-145.5 -99.5t-221.5 -38t-221 38t-145 99.5t-83 165t-39 206t-9 252zM303 1843h283l110 -295h-192zM367 731q0 -311 38.5 -427 t163.5 -116t164 116t39 427q0 309 -39 426t-164 117t-163.5 -117t-38.5 -426z" />
<glyph unicode="&#xd3;" horiz-adv-x="1138" d="M72 731.5q0 149.5 9 251.5t39 205.5t83 165t145 99.5t221 38t221.5 -38t145.5 -99.5t83 -165t39 -205.5t9 -251.5t-9 -252t-39 -206t-83 -165t-145.5 -99.5t-221.5 -38t-221 38t-145 99.5t-83 165t-39 206t-9 252zM367 731q0 -311 38.5 -427t163.5 -116t164 116t39 427 q0 309 -39 426t-164 117t-163.5 -117t-38.5 -426zM465 1548l110 295h283l-201 -295h-192z" />
<glyph unicode="&#xd4;" horiz-adv-x="1138" d="M72 731.5q0 149.5 9 251.5t39 205.5t83 165t145 99.5t221 38t221.5 -38t145.5 -99.5t83 -165t39 -205.5t9 -251.5t-9 -252t-39 -206t-83 -165t-145.5 -99.5t-221.5 -38t-221 38t-145 99.5t-83 165t-39 206t-9 252zM266 1548l160 295h295l160 -295h-217l-95 174l-98 -174 h-205zM367 731q0 -311 38.5 -427t163.5 -116t164 116t39 427q0 309 -39 426t-164 117t-163.5 -117t-38.5 -426z" />
<glyph unicode="&#xd5;" horiz-adv-x="1138" d="M72 731.5q0 149.5 9 251.5t39 205.5t83 165t145 99.5t221 38t221.5 -38t145.5 -99.5t83 -165t39 -205.5t9 -251.5t-9 -252t-39 -206t-83 -165t-145.5 -99.5t-221.5 -38t-221 38t-145 99.5t-83 165t-39 206t-9 252zM246 1567q35 254 190 254q57 0 88 -15l99 -43 q31 -12 61 -12q27 0 42 24.5t15 49.5h148q-10 -113 -61.5 -183.5t-129.5 -70.5q-45 0 -129 34.5t-114 34.5q-49 0 -66 -73h-143zM367 731q0 -311 38.5 -427t163.5 -116t164 116t39 427q0 309 -39 426t-164 117t-163.5 -117t-38.5 -426z" />
<glyph unicode="&#xd6;" horiz-adv-x="1138" d="M72 731.5q0 149.5 9 251.5t39 205.5t83 165t145 99.5t221 38t221.5 -38t145.5 -99.5t83 -165t39 -205.5t9 -251.5t-9 -252t-39 -206t-83 -165t-145.5 -99.5t-221.5 -38t-221 38t-145 99.5t-83 165t-39 206t-9 252zM281 1575v242h229v-242h-229zM367 731q0 -311 38.5 -427 t163.5 -116t164 116t39 427q0 309 -39 426t-164 117t-163.5 -117t-38.5 -426zM633 1575v242h229v-242h-229z" />
<glyph unicode="&#xd7;" horiz-adv-x="1228" d="M121 201l319 317l-319 318l176 176l317 -320l318 320l176 -176l-320 -318l320 -317l-176 -176l-318 319l-317 -319z" />
<glyph unicode="&#xd8;" horiz-adv-x="1138" d="M72 731q0 150 9 252t39 205.5t83 165t145 99.5t221 38q150 0 248 -49l53 125l99 -43l-62 -144q94 -86 127 -243.5t33 -405.5q0 -150 -9 -252t-39 -205.5t-83 -165t-145.5 -99.5t-221.5 -38q-152 0 -247 49l-54 -124l-98 43l61 143q-94 86 -126.5 243.5t-32.5 405.5z M367 731q0 -213 12 -303h4l330 772q-45 74 -144 74q-125 0 -163.5 -117t-38.5 -426zM426 264q39 -76 143 -76q125 0 164 116t39 427q0 207 -12 303h-4z" />
<glyph unicode="&#xd9;" horiz-adv-x="1101" d="M84 442v1020h295v-1020q0 -121 37 -187.5t135 -66.5t135 67t37 187v1020h295v-1020q0 -133 -38 -228t-106.5 -146.5t-147.5 -74t-175 -22.5q-98 0 -175 19.5t-146.5 69t-107.5 145.5t-38 237zM289 1843h282l111 -295h-193z" />
<glyph unicode="&#xda;" horiz-adv-x="1101" d="M84 442v1020h295v-1020q0 -121 37 -187.5t135 -66.5t135 67t37 187v1020h295v-1020q0 -133 -38 -228t-106.5 -146.5t-147.5 -74t-175 -22.5q-98 0 -175 19.5t-146.5 69t-107.5 145.5t-38 237zM451 1548l110 295h283l-201 -295h-192z" />
<glyph unicode="&#xdb;" horiz-adv-x="1101" d="M84 442v1020h295v-1020q0 -121 37 -187.5t135 -66.5t135 67t37 187v1020h295v-1020q0 -133 -38 -228t-106.5 -146.5t-147.5 -74t-175 -22.5q-98 0 -175 19.5t-146.5 69t-107.5 145.5t-38 237zM246 1548l160 295h294l160 -295h-217l-94 174l-98 -174h-205z" />
<glyph unicode="&#xdc;" horiz-adv-x="1101" d="M84 442v1020h295v-1020q0 -121 37 -187.5t135 -66.5t135 67t37 187v1020h295v-1020q0 -133 -38 -228t-106.5 -146.5t-147.5 -74t-175 -22.5q-98 0 -175 19.5t-146.5 69t-107.5 145.5t-38 237zM260 1575v242h229v-242h-229zM612 1575v242h230v-242h-230z" />
<glyph unicode="&#xdd;" horiz-adv-x="1064" d="M6 1462h332l192 -565h5l204 565h320l-379 -887v-575h-295v575zM442 1552l111 295h283l-201 -295h-193z" />
<glyph unicode="&#xde;" horiz-adv-x="1062" d="M102 0v1462h295v-262h221q209 0 305.5 -126t96.5 -312q0 -221 -124 -330.5t-341 -109.5h-158v-322h-295zM397 983v-444h131q90 0 143.5 55t53.5 164q0 225 -205 225h-123z" />
<glyph unicode="&#xdf;" horiz-adv-x="1024" d="M84 0v1079q0 215 105.5 313.5t328.5 98.5q197 0 300.5 -89t103.5 -261q0 -119 -39 -187.5t-144 -113.5v-4q227 -37 228 -394q0 -455 -367 -454q-94 0 -135 8v192q18 -8 43 -8q104 0 140 73t36 226q0 248 -164 248h-51v193h35q135 0 135 194q0 184 -135 184 q-78 0 -107.5 -57t-29.5 -168v-1073h-283z" />
<glyph unicode="&#xe0;" horiz-adv-x="985" d="M57 287q0 152 63.5 227.5t215.5 116.5l160 43q63 16 87.5 45t24.5 84q0 135 -131 135t-131 -143v-31h-254v27q0 178 106.5 258.5t280.5 80.5q233 0 316.5 -84.5t83.5 -252.5v-580q0 -127 34 -213h-270q-18 33 -35 115h-4q-47 -84 -110.5 -114t-169.5 -30 q-135 0 -201 94.5t-66 221.5zM238 1528h282l111 -295h-193zM328 317q0 -68 26.5 -110.5t79.5 -42.5q68 0 121 43t53 127v217q-49 -39 -121 -55q-84 -18 -121.5 -61.5t-37.5 -117.5z" />
<glyph unicode="&#xe1;" horiz-adv-x="985" d="M57 287q0 152 63.5 227.5t215.5 116.5l160 43q63 16 87.5 45t24.5 84q0 135 -131 135t-131 -143v-31h-254v27q0 178 106.5 258.5t280.5 80.5q233 0 316.5 -84.5t83.5 -252.5v-580q0 -127 34 -213h-270q-18 33 -35 115h-4q-47 -84 -110.5 -114t-169.5 -30 q-135 0 -201 94.5t-66 221.5zM328 317q0 -68 26.5 -110.5t79.5 -42.5q68 0 121 43t53 127v217q-49 -39 -121 -55q-84 -18 -121.5 -61.5t-37.5 -117.5zM389 1233l111 295h282l-200 -295h-193z" />
<glyph unicode="&#xe2;" horiz-adv-x="985" d="M57 287q0 152 63.5 227.5t215.5 116.5l160 43q63 16 87.5 45t24.5 84q0 135 -131 135t-131 -143v-31h-254v27q0 178 106.5 258.5t280.5 80.5q233 0 316.5 -84.5t83.5 -252.5v-580q0 -127 34 -213h-270q-18 33 -35 115h-4q-47 -84 -110.5 -114t-169.5 -30 q-135 0 -201 94.5t-66 221.5zM184 1233l160 295h295l160 -295h-217l-95 174l-98 -174h-205zM328 317q0 -68 26.5 -110.5t79.5 -42.5q68 0 121 43t53 127v217q-49 -39 -121 -55q-84 -18 -121.5 -61.5t-37.5 -117.5z" />
<glyph unicode="&#xe3;" horiz-adv-x="985" d="M57 287q0 152 63.5 227.5t215.5 116.5l160 43q63 16 87.5 45t24.5 84q0 135 -131 135t-131 -143v-31h-254v27q0 178 106.5 258.5t280.5 80.5q233 0 316.5 -84.5t83.5 -252.5v-580q0 -127 34 -213h-270q-18 33 -35 115h-4q-47 -84 -110.5 -114t-169.5 -30 q-135 0 -201 94.5t-66 221.5zM174 1251q35 254 191 254q57 0 88 -14l98 -43q31 -12 61 -12q27 0 42.5 24.5t15.5 48.5h147q-10 -113 -61 -183.5t-129 -70.5q-45 0 -129 35t-115 35q-51 0 -66 -74h-143zM328 317q0 -68 26.5 -110.5t79.5 -42.5q68 0 121 43t53 127v217 q-49 -39 -121 -55q-84 -18 -121.5 -61.5t-37.5 -117.5z" />
<glyph unicode="&#xe4;" horiz-adv-x="985" d="M57 287q0 152 63.5 227.5t215.5 116.5l160 43q63 16 87.5 45t24.5 84q0 135 -131 135t-131 -143v-31h-254v27q0 178 106.5 258.5t280.5 80.5q233 0 316.5 -84.5t83.5 -252.5v-580q0 -127 34 -213h-270q-18 33 -35 115h-4q-47 -84 -110.5 -114t-169.5 -30 q-135 0 -201 94.5t-66 221.5zM203 1260v241h229v-241h-229zM328 317q0 -68 26.5 -110.5t79.5 -42.5q68 0 121 43t53 127v217q-49 -39 -121 -55q-84 -18 -121.5 -61.5t-37.5 -117.5zM555 1260v241h229v-241h-229z" />
<glyph unicode="&#xe5;" horiz-adv-x="985" d="M57 287q0 152 63.5 227.5t215.5 116.5l160 43q63 16 87.5 45t24.5 84q0 135 -131 135t-131 -143v-31h-254v27q0 178 106.5 258.5t280.5 80.5q233 0 316.5 -84.5t83.5 -252.5v-580q0 -127 34 -213h-270q-18 33 -35 115h-4q-47 -84 -110.5 -114t-169.5 -30 q-135 0 -201 94.5t-66 221.5zM254 1413q0 98 67.5 161.5t164 63.5t164 -63.5t67.5 -161.5t-66.5 -159.5t-165.5 -61.5q-100 0 -165.5 60.5t-65.5 160.5zM328 317q0 -68 26.5 -110.5t79.5 -42.5q68 0 121 43t53 127v217q-49 -39 -121 -55q-84 -18 -121.5 -61.5t-37.5 -117.5z M369 1413q0 -49 33.5 -83t83 -34t83 34t33.5 83t-33.5 83t-83 34t-83 -34t-33.5 -83z" />
<glyph unicode="&#xe6;" horiz-adv-x="1478" d="M55 287q0 152 63.5 227.5t215.5 116.5l160 43q63 16 87.5 45t24.5 84q0 135 -131 135t-131 -143v-31h-254v27q0 178 106.5 258.5t280.5 80.5q113 0 177.5 -28.5t107.5 -102.5q63 131 260 131q121 0 201 -37.5t123 -115.5t60 -174t17 -232v-63h-555v-88q0 -111 33 -183.5 t105 -72.5q68 0 101.5 50t45.5 157h254q-16 -399 -397 -400q-258 0 -332 191q-63 -117 -139 -154t-217 -37q-135 0 -201 94.5t-66 221.5zM326 317q0 -68 26.5 -110.5t79.5 -42.5q68 0 121 43t53 127v217q-49 -39 -121 -55q-84 -18 -121.5 -61.5t-37.5 -117.5zM868 676h285 q-4 141 -32.5 201.5t-108.5 60.5q-76 0 -110 -64.5t-34 -154.5v-43z" />
<glyph unicode="&#xe7;" horiz-adv-x="948" d="M53 551q0 319 116 449t331 130q193 0 294 -112.5t101 -312.5h-270q0 221 -127 221q-98 0 -130 -85t-32 -292q0 -213 30.5 -299t120.5 -86q72 0 105 61.5t33 196.5h270q0 -217 -98 -334q-82 -98 -262 -115l-60 -92q31 10 68 10q72 0 124 -39.5t48 -107.5q0 -90 -66.5 -139 t-191.5 -49q-135 0 -205 38l39 95q57 -31 141 -31q43 0 73 18.5t30 49.5q0 61 -91 65q-35 0 -69 -12l-45 41l98 153q-72 2 -139 27q-119 43 -177.5 175t-58.5 376z" />
<glyph unicode="&#xe8;" horiz-adv-x="948" d="M53 561q0 98 8.5 174t36 154t74.5 128t128 81.5t192 31.5q231 0 317 -140t86 -419v-63h-559v-88q0 -111 32.5 -183.5t106.5 -72.5q70 0 103.5 49t46.5 158h254q-16 -399 -400 -400q-86 0 -152.5 19.5t-110.5 48.5t-75.5 79t-48 95t-26 112.5t-11.5 115.5t-2 120z M225 1528h283l110 -295h-192zM336 676h289q-4 139 -33 200.5t-111 61.5q-78 0 -111.5 -63.5t-33.5 -155.5v-43z" />
<glyph unicode="&#xe9;" horiz-adv-x="948" d="M53 561q0 98 8.5 174t36 154t74.5 128t128 81.5t192 31.5q231 0 317 -140t86 -419v-63h-559v-88q0 -111 32.5 -183.5t106.5 -72.5q70 0 103.5 49t46.5 158h254q-16 -399 -400 -400q-86 0 -152.5 19.5t-110.5 48.5t-75.5 79t-48 95t-26 112.5t-11.5 115.5t-2 120zM336 676 h289q-4 139 -33 200.5t-111 61.5q-78 0 -111.5 -63.5t-33.5 -155.5v-43zM389 1233l111 295h282l-200 -295h-193z" />
<glyph unicode="&#xea;" horiz-adv-x="948" d="M53 561q0 98 8.5 174t36 154t74.5 128t128 81.5t192 31.5q231 0 317 -140t86 -419v-63h-559v-88q0 -111 32.5 -183.5t106.5 -72.5q70 0 103.5 49t46.5 158h254q-16 -399 -400 -400q-86 0 -152.5 19.5t-110.5 48.5t-75.5 79t-48 95t-26 112.5t-11.5 115.5t-2 120z M184 1233l160 295h295l160 -295h-217l-95 174l-98 -174h-205zM336 676h289q-4 139 -33 200.5t-111 61.5q-78 0 -111.5 -63.5t-33.5 -155.5v-43z" />
<glyph unicode="&#xeb;" horiz-adv-x="948" d="M53 561q0 98 8.5 174t36 154t74.5 128t128 81.5t192 31.5q231 0 317 -140t86 -419v-63h-559v-88q0 -111 32.5 -183.5t106.5 -72.5q70 0 103.5 49t46.5 158h254q-16 -399 -400 -400q-86 0 -152.5 19.5t-110.5 48.5t-75.5 79t-48 95t-26 112.5t-11.5 115.5t-2 120z M201 1260v241h229v-241h-229zM336 676h289q-4 139 -33 200.5t-111 61.5q-78 0 -111.5 -63.5t-33.5 -155.5v-43zM553 1260v241h229v-241h-229z" />
<glyph unicode="&#xec;" horiz-adv-x="491" d="M-8 1528h282l111 -295h-192zM104 0v1102h283v-1102h-283z" />
<glyph unicode="&#xed;" horiz-adv-x="491" d="M104 0v1102h283v-1102h-283zM104 1233l111 295h283l-201 -295h-193z" />
<glyph unicode="&#xee;" horiz-adv-x="491" d="M-59 1233l159 295h295l160 -295h-217l-94 174l-99 -174h-204zM104 0v1102h283v-1102h-283z" />
<glyph unicode="&#xef;" horiz-adv-x="491" d="M-45 1260v241h229v-241h-229zM104 0v1102h283v-1102h-283zM307 1260v241h230v-241h-230z" />
<glyph unicode="&#xf0;" d="M57 551q0 539 357 539q80 0 143 -54l4 4q-63 102 -188 246l-158 -92l-80 86l156 92l-135 131l213 125q66 -57 137 -129l153 92l89 -86l-158 -92q172 -188 254 -389t82 -473q0 -293 -100.5 -436.5t-333.5 -143.5h-14q-233 0 -325 137q-96 140 -96 443zM340 537 q0 -94 4 -152.5t18.5 -114t46 -81t83.5 -25.5q84 0 117.5 85t33.5 288q0 195 -34 277.5t-117 82.5q-51 0 -83 -25.5t-46.5 -80t-18.5 -109.5t-4 -145z" />
<glyph unicode="&#xf1;" horiz-adv-x="1024" d="M94 0v1102h271v-129h4q86 158 280 157q281 0 281 -313v-817h-283v760q0 84 -28.5 118.5t-92.5 34.5q-150 0 -149 -182v-731h-283zM176 1251q35 254 191 254q57 0 88 -14l98 -43q31 -12 61 -12q27 0 42.5 24.5t15.5 48.5h147q-10 -113 -61 -183.5t-129 -70.5 q-45 0 -129 35t-115 35q-49 0 -66 -74h-143z" />
<glyph unicode="&#xf2;" d="M57 551q0 293 100.5 436t334.5 143q7 0 13 1q233 0 325 -137q95 -140 96 -443q0 -293 -100.5 -436.5t-333.5 -143.5h-14q-233 0 -325 137q-96 140 -96 443zM219 1528h283l110 -295h-192zM340 551q0 -98 4 -157.5t18.5 -118t46 -85t83.5 -26.5q84 0 117.5 88t33.5 299 t-34 299t-117 88q-51 0 -83 -26.5t-46.5 -85t-18.5 -118t-4 -157.5z" />
<glyph unicode="&#xf3;" d="M57 551q0 293 100.5 436t334.5 143q7 0 13 1q233 0 325 -137q95 -140 96 -443q0 -293 -100.5 -436.5t-333.5 -143.5h-14q-233 0 -325 137q-96 140 -96 443zM340 551q0 -98 4 -157.5t18.5 -118t46 -85t83.5 -26.5q84 0 117.5 88t33.5 299t-34 299t-117 88q-51 0 -83 -26.5 t-46.5 -85t-18.5 -118t-4 -157.5zM391 1233l111 295h282l-200 -295h-193z" />
<glyph unicode="&#xf4;" d="M57 551q0 293 100.5 436t334.5 143q7 0 13 1q233 0 325 -137q95 -140 96 -443q0 -293 -100.5 -436.5t-333.5 -143.5h-14q-233 0 -325 137q-96 140 -96 443zM184 1233l160 295h295l160 -295h-217l-95 174l-98 -174h-205zM340 551q0 -98 4 -157.5t18.5 -118t46 -85 t83.5 -26.5q84 0 117.5 88t33.5 299t-34 299t-117 88q-51 0 -83 -26.5t-46.5 -85t-18.5 -118t-4 -157.5z" />
<glyph unicode="&#xf5;" d="M57 551q0 293 100.5 436t334.5 143q7 0 13 1q233 0 325 -137q95 -140 96 -443q0 -293 -100.5 -436.5t-333.5 -143.5h-14q-233 0 -325 137q-96 140 -96 443zM170 1251q35 254 190 254q57 0 89 -14l98 -43q31 -12 61 -12q27 0 42.5 24.5t15.5 48.5h147 q-10 -113 -61.5 -183.5t-128.5 -70.5q-45 0 -129 35t-115 35q-51 0 -66 -74h-143zM340 551q0 -98 4 -157.5t18.5 -118t46 -85t83.5 -26.5q84 0 117.5 88t33.5 299t-34 299t-117 88q-51 0 -83 -26.5t-46.5 -85t-18.5 -118t-4 -157.5z" />
<glyph unicode="&#xf6;" d="M57 551q0 293 100.5 436t334.5 143q7 0 13 1q233 0 325 -137q95 -140 96 -443q0 -293 -100.5 -436.5t-333.5 -143.5h-14q-233 0 -325 137q-96 140 -96 443zM201 1260v241h229v-241h-229zM340 551q0 -98 4 -157.5t18.5 -118t46 -85t83.5 -26.5q84 0 117.5 88t33.5 299 t-34 299t-117 88q-51 0 -83 -26.5t-46.5 -85t-18.5 -118t-4 -157.5zM553 1260v241h229v-241h-229z" />
<glyph unicode="&#xf7;" horiz-adv-x="1228" d="M96 391v254h1037v-254h-1037zM416 84q0 84 57 141.5t141 57.5t141.5 -57.5t57.5 -141.5t-57.5 -141.5t-141.5 -57.5t-141 57.5t-57 141.5zM416 952q0 84 57 141.5t141 57.5t141.5 -57.5t57.5 -141.5t-57.5 -141t-141.5 -57t-141 57t-57 141z" />
<glyph unicode="&#xf8;" d="M57 551q0 293 100.5 436t334.5 143q6 0 11 1q129 0 212 -44l69 134l90 -47l-75 -144q127 -121 127 -479q0 -293 -100.5 -436.5t-333.5 -143.5h-22q-124 0 -202 43l-69 -133l-90 47l75 144q-127 121 -127 479zM340 461q0 -31 4 -80h4l252 487q-33 70 -108 70 q-51 0 -83 -26.5t-46.5 -85t-18.5 -118t-4 -157.5v-90zM381 231q33 -68 111 -67q84 0 117.5 88t33.5 299q0 74 -4 168h-4z" />
<glyph unicode="&#xf9;" horiz-adv-x="1024" d="M94 285v817h283v-760q0 -84 28.5 -119t92.5 -35q150 0 149 183v731h283v-1102h-271v129h-4q-86 -158 -280 -158q-281 1 -281 314zM246 1528h282l111 -295h-193z" />
<glyph unicode="&#xfa;" horiz-adv-x="1024" d="M94 285v817h283v-760q0 -84 28.5 -119t92.5 -35q150 0 149 183v731h283v-1102h-271v129h-4q-86 -158 -280 -158q-281 1 -281 314zM410 1233l110 295h283l-201 -295h-192z" />
<glyph unicode="&#xfb;" horiz-adv-x="1024" d="M94 285v817h283v-760q0 -84 28.5 -119t92.5 -35q150 0 149 183v731h283v-1102h-271v129h-4q-86 -158 -280 -158q-281 1 -281 314zM205 1233l160 295h294l160 -295h-217l-94 174l-98 -174h-205z" />
<glyph unicode="&#xfc;" horiz-adv-x="1024" d="M94 285v817h283v-760q0 -84 28.5 -119t92.5 -35q150 0 149 183v731h283v-1102h-271v129h-4q-86 -158 -280 -158q-281 1 -281 314zM221 1260v241h230v-241h-230zM573 1260v241h230v-241h-230z" />
<glyph unicode="&#xfd;" horiz-adv-x="909" d="M10 1102h295l164 -762h4l143 762h283l-266 -1028q-39 -150 -71 -230t-81 -129t-108.5 -62t-163.5 -13h-115v210q37 -6 74 -6q139 0 151 156zM365 1233l110 295h283l-201 -295h-192z" />
<glyph unicode="&#xfe;" horiz-adv-x="1024" d="M94 -360v1822h283v-477h4q68 145 237 145q174 0 256 -137t82 -442t-81.5 -442.5t-256.5 -137.5q-150 0 -237 131h-4v-462h-283zM377 550.5q0 -192.5 30.5 -277.5t118.5 -85t118 85t30 277.5t-30 277.5t-118 85t-118.5 -85t-30.5 -277.5z" />
<glyph unicode="&#xff;" horiz-adv-x="909" d="M10 1102h295l164 -762h4l143 762h283l-266 -1028q-39 -150 -71 -230t-81 -129t-108.5 -62t-163.5 -13h-115v210q37 -6 74 -6q139 0 151 156zM182 1260v241h230v-241h-230zM535 1260v241h229v-241h-229z" />
<glyph unicode="&#x152;" horiz-adv-x="1593" d="M72 748q0 127 9 224t36.5 199.5t75 169t129 108.5t192.5 42q203 0 266 -107h4v78h748v-241h-496v-344h465v-242h-465v-393h512v-242h-764v84h-4q-23 -51 -97.5 -82t-154.5 -31q-104 0 -182 29t-127 88t-79.5 123.5t-45 163t-18.5 178.5t-4 195zM367 731q0 -313 36.5 -428 t165.5 -115q123 0 154 105.5t31 437.5q0 117 -1 184.5t-7.5 138t-18.5 104.5t-32.5 64.5t-50.5 41t-75 10.5q-129 0 -165.5 -115t-36.5 -428z" />
<glyph unicode="&#x153;" horiz-adv-x="1517" d="M59 551q0 293 100.5 436t334.5 143q113 0 181 -36.5t111 -116.5q41 74 113 113.5t156 39.5q231 0 317 -140t86 -419v-63h-559v-88q0 -111 33 -183.5t106 -72.5q70 0 104 50t46 157h254q-16 -399 -383 -400q-225 0 -287 162q-29 -76 -111.5 -119t-191.5 -43 q-229 0 -319.5 139.5t-90.5 440.5zM342 551q0 -98 4 -157.5t19.5 -118t48 -85t84.5 -26.5q84 0 115.5 88t31.5 299t-33.5 299t-117.5 88q-51 0 -83 -26.5t-46.5 -85t-18.5 -118t-4 -157.5zM899 676h289q-4 139 -33 200.5t-111 61.5q-78 0 -111.5 -63.5t-33.5 -155.5v-43z " />
<glyph unicode="&#x178;" horiz-adv-x="1064" d="M6 1462h332l192 -565h5l204 565h320l-379 -887v-575h-295v575zM242 1575v242h229v-242h-229zM594 1575v242h229v-242h-229z" />
<glyph unicode="&#x2c6;" horiz-adv-x="454" d="M-80 1233l160 295h295l160 -295h-218l-94 174l-98 -174h-205z" />
<glyph unicode="&#x2dc;" horiz-adv-x="454" d="M-94 1251q35 254 190 254q57 0 88 -14l99 -43q31 -12 61 -12q27 0 42 24.5t15 48.5h148q-10 -113 -61.5 -183.5t-129.5 -70.5q-45 0 -129 35t-114 35q-49 0 -66 -74h-143z" />
<glyph unicode="&#x2013;" horiz-adv-x="1024" d="M0 477v230h1024v-230h-1024z" />
<glyph unicode="&#x2014;" horiz-adv-x="2048" d="M0 477v230h2048v-230h-2048z" />
<glyph unicode="&#x2018;" horiz-adv-x="532" d="M131 805v266q0 180 58.5 277.5t211.5 113.5v-143q-51 -10 -78.5 -56t-27.5 -106v-33h106v-319h-270z" />
<glyph unicode="&#x2019;" horiz-adv-x="532" d="M131 805v143q51 10 79 56.5t28 105.5v33h-107v319h270v-266q0 -180 -58 -277.5t-212 -113.5z" />
<glyph unicode="&#x201a;" horiz-adv-x="532" d="M131 0v319h270v-266q0 -180 -58 -277.5t-212 -113.5v143q51 10 79 56.5t28 105.5v33h-107z" />
<glyph unicode="&#x201c;" horiz-adv-x="948" d="M139 805v266q0 180 58.5 277.5t212.5 113.5v-143q-51 -10 -79 -56t-28 -106v-33h107v-319h-271zM539 805v266q0 180 58 277.5t212 113.5v-143q-51 -10 -79 -56t-28 -106v-33h107v-319h-270z" />
<glyph unicode="&#x201d;" horiz-adv-x="948" d="M139 805v143q51 10 79 56.5t28 105.5v33h-107v319h271v-266q0 -180 -58.5 -277.5t-212.5 -113.5zM539 805v143q51 10 78.5 56.5t27.5 105.5v33h-106v319h270v-266q0 -180 -58 -277.5t-212 -113.5z" />
<glyph unicode="&#x201e;" horiz-adv-x="948" d="M139 0v319h271v-266q0 -180 -58.5 -277.5t-212.5 -113.5v143q51 10 79 56.5t28 105.5v33h-107zM539 0v319h270v-266q0 -180 -58.5 -277.5t-211.5 -113.5v143q51 10 78.5 56.5t27.5 105.5v33h-106z" />
<glyph unicode="&#x2022;" horiz-adv-x="1024" d="M147 731.5q0 151.5 106.5 258t258.5 106.5t258.5 -106.5t106.5 -258t-106.5 -258t-258.5 -106.5t-258.5 106.5t-106.5 258z" />
<glyph unicode="&#x2026;" horiz-adv-x="2048" d="M207 0v319h270v-319h-270zM889 0v319h270v-319h-270zM1571 0v319h270v-319h-270z" />
<glyph unicode="&#x2039;" horiz-adv-x="493" d="M94 426v332l305 246v-271l-161 -141l161 -141v-271z" />
<glyph unicode="&#x203a;" horiz-adv-x="493" d="M94 180v271l162 141l-162 141v271l305 -246v-332z" />
<glyph unicode="&#x20ac;" d="M53 528l60 160h77l3 105h-140l62 159h84q43 504 467 504q182 0 315 -102l-94 -205q-98 104 -203 104q-117 0 -160 -100q-25 -55 -35 -201h345l-60 -159h-291v-105h271l-60 -160h-207q6 -164 27 -221q39 -125 156 -125q109 0 264 137v-256q-156 -92 -309 -92 q-414 0 -430 557h-142z" />
<glyph unicode="&#x2122;" horiz-adv-x="2027" d="M63 1270v192h689v-192h-230v-656h-229v656h-230zM905 614v848h346l170 -512h4l170 512h347v-848h-218v582h-4l-194 -582h-205l-195 582h-4v-582h-217z" />
<glyph unicode="&#xe000;" horiz-adv-x="1100" d="M0 1100h1100v-1100h-1100v1100z" />
<glyph unicode="&#xfb01;" horiz-adv-x="1099" d="M12 909v193h144v125q0 143 74.5 203.5t220.5 60.5q74 0 151 -6v-201q-10 2 -29 2h-26q-59 0 -84 -20.5t-25 -67.5v-96h164v-193h-164v-909h-282v909h-144zM713 0v1102h282v-1102h-282zM713 1237v242h282v-242h-282z" />
<glyph unicode="&#xfb02;" horiz-adv-x="1099" d="M12 909v193h144v125q0 143 74.5 203.5t220.5 60.5q74 0 151 -6v-201q-10 2 -29 2h-26q-59 0 -84 -20.5t-25 -67.5v-96h164v-193h-164v-909h-282v909h-144zM713 0v1479h282v-1479h-282z" />
<glyph unicode="&#xfb03;" horiz-adv-x="1703" d="M12 909v193h144v125q0 143 74.5 203.5t220.5 60.5q74 0 151 -6v-201q-10 2 -29 2h-26q-59 0 -84 -20.5t-25 -67.5v-96h164v-193h-164v-909h-282v909h-144zM618 909v193h144v125q0 143 74.5 203.5t220.5 60.5q74 0 151 -6v-201q-10 2 -28 2h-27q-59 0 -84 -20.5t-25 -67.5 v-96h164v-193h-164v-909h-282v909h-144zM1317 0v1102h282v-1102h-282zM1317 1237v242h282v-242h-282z" />
<glyph unicode="&#xfb04;" horiz-adv-x="1703" d="M12 909v193h144v125q0 143 74.5 203.5t220.5 60.5q74 0 151 -6v-201q-10 2 -29 2h-26q-59 0 -84 -20.5t-25 -67.5v-96h164v-193h-164v-909h-282v909h-144zM618 909v193h144v125q0 143 74.5 203.5t220.5 60.5q74 0 151 -6v-201q-10 2 -28 2h-27q-59 0 -84 -20.5t-25 -67.5 v-96h164v-193h-164v-909h-282v909h-144zM1317 0v1462h282v-1462h-282z" />
</font>
</defs>
</svg>
